The torrent includes the film with the original Serbian soundtrack, and two subtitle files: in spanish and english. 

This movie is very hard to get in the internet, and this is the emule version. No Hd, but absolutely watchable. A classic Serbian film with Erland Josephson (classic actor from Ingmar Bergman and Andrei Tarkovskiy films) and Rade Serbedzija, who went to Hollywood later on (Snatch, The Saint, etc.)

Technical info (per Mediainfo): 

Format                                   : AVI
Format/Info                              : Audio Video Interleave
File size                                : 700 MiB
Duration                                 : 1h 44mn
Overall bit rate                         : 940 Kbps

Video
ID                                       : 0
Format                                   : MPEG-4 Visual
Format profile                           : Simple@L3
Format settings, BVOP                    : 1
Format settings, QPel                    : No
Format settings, GMC                     : No warppoints
Format settings, Matrix                  : Default (H.263)
Muxing mode                              : Packed bitstream
Codec ID                                 : XVID
Codec ID/Hint                            : XviD
Duration                                 : 1h 44mn
Bit rate                                 : 806 Kbps
Width                                    : 640 pixels
Height                                   : 384 pixels
Display aspect ratio                     : 1.667
Frame rate                               : 25.000 fps
Color space                              : YUV
Chroma subsampling                       : 4:2:0
Bit depth                                : 8 bits
Scan type                                : Progressive
Compression mode                         : Lossy
Bits/(Pixel*Frame)                       : 0.131
Stream size                              : 600 MiB (86%)
Writing library                          : XviD 1.1.0 Beta2 (UTC 2005-04-04)

Audio
ID                                       : 1
Format                                   : MPEG Audio
Format version                           : Version 1
Format profile                           : Layer 3
Mode                                     : Joint stereo
Mode extension                           : MS Stereo
Codec ID                                 : 55
Codec ID/Hint                            : MP3
Duration                                 : 1h 44mn
Source duration                          : 1h 44mn
Bit rate mode                            : Constant
Bit rate                                 : 128 Kbps
Channel(s)                               : 2 channels
Sampling rate                            : 48.0 KHz
Compression mode                         : Lossy
Stream size                              : 95.3 MiB (14%)
Alignment                                : Split accross interleaves
Interleave, duration                     : 200 ms (5.00 video frames)

Enjoy and share!